<global>
ampeg_release=1.50

<group>
group_label=RR1
seq_length=8
seq_position=1

<region>
end=39699
hivel=127
key=c4
lovel=0
sample=Shaker_1_Hits_RR2.opus

<group>
group_label=RR2
seq_length=8
seq_position=2

<region>
end=43931
hivel=127
key=c4
lovel=0
offset=924
sample=Shaker_1_Hits_RR1.opus

<group>
group_label=RR4
seq_length=8
seq_position=3

<region>
end=29203
hivel=127
key=c4
lovel=0
sample=Shaker_1_Hits_RR4.opus

<group>
group_label=RR5
seq_length=8
seq_position=4

<region>
end=34636
hivel=127
key=c4
lovel=0
sample=Shaker_1_Hits_RR5.opus

<group>
group_label=RR8
seq_length=8
seq_position=5

<region>
end=40394
hivel=127
key=c4
lovel=0
sample=Shaker_1_Hits_RR8.opus

<group>
group_label=RR6
seq_length=8
seq_position=6

<region>
end=32732
hivel=127
key=c4
lovel=0
sample=Shaker_1_Hits_RR6.opus

<group>
group_label=RR3
seq_length=8
seq_position=7

<region>
end=30539
hivel=127
key=c4
lovel=0
sample=Shaker_1_Hits_RR3.opus

<group>
group_label=RR7
seq_length=8
seq_position=8

<region>
end=33272
hivel=127
key=c4
lovel=0
sample=Shaker_1_Hits_RR7.opus

<group>
amp_veltrack=0
ampeg_release=0.45
group_label=MP_copy
xf_cccurve=gain
xfin_hicc1=64
xfin_locc1=0
xfout_hicc1=127
xfout_locc1=64

<region>
hivel=127
key=d4
loop_end=116839
loop_start=40627
lovel=0
sample=Shaker_1_Rolls_RR1.opus

<group>
amp_veltrack=0
ampeg_release=0.45
group_label=F_copy
xf_cccurve=gain
xfin_hicc1=127
xfin_locc1=64
xfout_hicc1=127
xfout_locc1=127

<region>
hivel=127
key=d4
loop_end=187444
loop_start=13653
lovel=0
sample=Shaker_1_Rolls_RR2.opus

